<svg width="2062" height="372" viewBox="0 0 2062 372" fill="none" xmlns="http://www.w3.org/2000/svg">
<path d="M0 367.432V3.90625H16.1133V175.049H239.99V3.90625H256.104V367.432H239.99V190.43H16.1133V367.432H0ZM558.105 358.154C539.388 366.943 518.962 371.338 496.826 371.338C474.691 371.338 454.183 366.943 435.303 358.154C416.423 349.202 400.228 336.589 386.719 320.312C361.491 289.714 348.877 248.779 348.877 197.51V173.828C348.877 122.559 361.491 81.6243 386.719 51.0254C400.228 34.7493 416.423 22.2168 435.303 13.4277C454.183 4.47591 474.691 0 496.826 0C518.962 0 539.388 4.47591 558.105 13.4277C576.986 22.2168 593.18 34.7493 606.689 51.0254C632.08 81.7871 644.775 122.721 644.775 173.828V197.51C644.775 248.617 632.08 289.551 606.689 320.312C593.18 336.589 576.986 349.202 558.105 358.154ZM364.746 196.533C364.746 243.571 376.221 281.331 399.17 309.814C411.214 324.463 425.618 335.856 442.383 343.994C459.147 351.969 477.295 355.957 496.826 355.957C516.357 355.957 534.424 351.969 551.025 343.994C567.627 336.019 582.031 324.626 594.238 309.814C617.188 281.331 628.662 243.571 628.662 196.533V175.049C628.662 127.848 617.188 90.0065 594.238 61.5234C582.031 46.7122 567.627 35.319 551.025 27.3438C534.424 19.3685 516.357 15.3809 496.826 15.3809C477.295 15.3809 459.147 19.4499 442.383 27.5879C425.618 35.5632 411.214 46.875 399.17 61.5234C376.221 90.0065 364.746 127.848 364.746 175.049V196.533ZM737.305 367.432V3.90625H762.939L901.855 304.932L1040.28 3.90625H1065.92V367.432H1049.8V59.3262L1050.29 19.5312L1033.45 57.373L909.424 324.951H893.311L769.775 57.373L752.93 19.5312L753.418 59.3262V367.432H737.305ZM1133.3 367.432L1272.95 3.90625H1290.77L1430.42 367.432H1413.33L1366.46 244.873H1196.78L1149.9 367.432H1133.3ZM1202.88 229.492H1360.35L1306.4 88.3789L1281.74 23.4375L1256.84 88.3789L1202.88 229.492ZM1497.56 367.432V3.90625H1598.14C1617.35 3.90625 1632.81 5.20833 1644.53 7.8125C1656.41 10.4167 1666.75 14.4857 1675.54 20.0195C1687.91 27.5065 1697.84 37.9232 1705.32 51.2695C1712.81 64.6159 1716.55 79.834 1716.55 96.9238C1716.55 122.64 1708.01 143.88 1690.92 160.645C1673.99 177.246 1650.88 187.174 1621.58 190.43L1734.13 367.432H1715.09L1617.19 212.891C1610.35 202.148 1604.9 195.801 1600.83 193.848C1596.92 191.895 1587.89 190.918 1573.73 190.918H1513.67V367.432H1497.56ZM1513.67 175.537H1607.18C1635.82 175.537 1658.53 168.376 1675.29 154.053C1692.22 139.73 1700.68 120.687 1700.68 96.9238C1700.68 83.5775 1697.67 71.3704 1691.65 60.3027C1685.79 49.0723 1677.49 40.1204 1666.75 33.4473C1651.94 24.1699 1628.74 19.5312 1597.17 19.5312H1513.67V175.537ZM1764.16 367.432L1903.81 3.90625H1921.63L2061.28 367.432H2044.19L1997.31 244.873H1827.64L1780.76 367.432H1764.16ZM1833.74 229.492H1991.21L1937.26 88.3789L1912.6 23.4375L1887.7 88.3789L1833.74 229.492Z" fill="white"/>
</svg>
